<?xml version="1.0" encoding="UTF-8"?>
<svg version="1.1" xmlns="http://www.w3.org/2000/svg" width="64" height="64">
<path d="M0 0 C21.12 0 42.24 0 64 0 C64 21.12 64 42.24 64 64 C42.88 64 21.76 64 0 64 C0 42.88 0 21.76 0 0 Z " fill="#F8F4F0" transform="translate(0,0)"/>
<path d="M0 0 C4.875 1.75 4.875 1.75 6 4 C6.46343537 9.74659864 6.46343537 9.74659864 6 12 C3.98046875 14.2578125 3.98046875 14.2578125 2 16 C2.97582031 16.25394531 3.95164063 16.50789063 4.95703125 16.76953125 C6.22933594 17.11371094 7.50164063 17.45789063 8.8125 17.8125 C10.70935547 18.31716797 10.70935547 18.31716797 12.64453125 18.83203125 C17.45710467 20.50718777 17.45710467 20.50718777 19 23 C19.58622414 29.69361383 18.23158746 35.81630536 14 41 C7.15648136 46.5010102 -2.7021584 45.92145036 -11.01708984 45.26611328 C-16.24717273 44.56421839 -19.18763146 42.31522224 -22.3515625 38.2734375 C-25.66242271 32.80038286 -25.41165888 27.22062311 -25 21 C-25.62648438 20.66226562 -26.25296875 20.32453125 -26.8984375 19.9765625 C-27.71570312 19.53054687 -28.53296875 19.08453125 -29.375 18.625 C-30.18710937 18.18414063 -30.99921875 17.74328125 -31.8359375 17.2890625 C-34 16 -34 16 -36 14 C-35.625 11.875 -35.625 11.875 -35 10 C-28.96492258 10.62217293 -25.5138178 13.1347634 -20.68359375 16.6015625 C-17.45111282 18.28602854 -16.42131609 17.98134929 -13 17 C-11.23022239 16.93540958 -9.45829848 16.91388935 -7.6875 16.9375 C-6.80449219 16.94652344 -5.92148437 16.95554687 -5.01171875 16.96484375 C-4.01591797 16.98224609 -4.01591797 16.98224609 -3 17 C-2.566875 16.1028125 -2.566875 16.1028125 -2.125 15.1875 C-1 13 -1 13 1 10 C1.19850603 6.29455413 1.17664871 3.52994613 0 0 Z " fill="#A52317" transform="translate(38,10)"/>
<path d="M0 0 C4.875 1.75 4.875 1.75 6 4 C6.69713589 10.97135893 6.69713589 10.97135893 4.8828125 13.6484375 C4.42648438 14.13570312 3.97015625 14.62296875 3.5 15.125 C0.68786553 17.79399629 0.68786553 17.79399629 0.6875 21.375 C0.790625 22.24125 0.89375 23.1075 1 24 C-0.32 23.67 -1.64 23.34 -3 23 C-3.8125 20.4375 -3.8125 20.4375 -4 17 C-2.953125 15.2890625 -2.953125 15.2890625 -1.5625 13.5625 C0.68545975 10.75410707 0.99350874 10.06491257 1.375 6.25 C1.1120143 2.99370706 1.1120143 2.99370706 0 0 Z " fill="#EFA73F" transform="translate(38,10)"/>
<path d="M0 0 C-0.226875 1.051875 -0.45375 2.10375 -0.6875 3.1875 C-1.04526727 7.55226065 -0.27547098 8.45026527 2 12 C2.375 15.125 2.375 15.125 2 18 C0.5 19.875 0.5 19.875 -1 21 C-1.66 20.67 -2.32 20.34 -3 20 C-2.6596875 18.63875 -2.6596875 18.63875 -2.3125 17.25 C-1.93262635 13.29931401 -2.71614363 13.0146904 -5 10 C-5.64166667 3.90416667 -5.64166667 3.90416667 -3.625 1.0625 C-2 0 -2 0 0 0 Z " fill="#F2AA41" transform="translate(34,2)"/>
<path d="M0 0 C0 0.99 0 1.98 0 3 C-1.74635165 3.53293835 -3.49727652 4.05090663 -5.25 4.5625 C-6.22453125 4.85253906 -7.1990625 5.14257812 -8.203125 5.44140625 C-10.96243932 5.99249836 -12.3912824 5.93789609 -15 5 C-11.5845815 0.30379956 -5.36926611 0 0 0 Z " fill="#E0942F" transform="translate(32,32)"/>
<path d="M0 0 C2.31 0.66 4.62 1.32 7 2 C7 2.99 7 3.98 7 5 C4.69 4.34 2.38 3.68 0 3 C0 2.01 0 1.02 0 0 Z " fill="#DF932E" transform="translate(44,33)"/>
<path d="M0 0 C0.66 0 1.32 0 2 0 C3.32 2.31 4.64 4.62 6 7 C3.5625 6.3125 3.5625 6.3125 1 5 C0.1875 2.375 0.1875 2.375 0 0 Z " fill="#E1952F" transform="translate(18,43)"/>
</svg>
